<svg width="357" height="373" viewBox="0 0 357 373" fill="none" xmlns="http://www.w3.org/2000/svg">
<rect x="349" y="147" width="60" height="339" transform="rotate(90 349 147)" fill="white"/>
<path d="M180.78 171.817L356.627 324.679L314.639 372.98L138.792 220.118L180.78 171.817Z" fill="white"/>
<path d="M219.627 222.027L41.1386 371.796L0.000194252 322.77L178.489 173L219.627 222.027Z" fill="white"/>
<path d="M40 147C38.8954 147 38 146.105 38 145L38 87.0854L248 87.0854V147H40Z" fill="white"/>
<path d="M38 87.0854L38 25.0002C38 11.1931 49.1929 0.000213623 63 0.000213623L223 0.000213623C236.807 0.000213623 248 11.1931 248 25.0002V87.0854L38 87.0854Z" fill="white"/>
<path d="M285 59C285 50.7157 291.716 44 300 44H315C323.284 44 330 50.7157 330 59V147H285V59Z" fill="white"/>
</svg>
