<svg width="435" height="341" viewBox="0 0 435 341" fill="none" xmlns="http://www.w3.org/2000/svg">
<path fill-rule="evenodd" clip-rule="evenodd" d="M68 340.104V204.156L175.978 332.839C180.093 337.743 186.062 340.176 192 339.972V340.104H272V339.858C362.391 336.188 435 261.768 435 170.5C435 79.2322 362.391 4.81229 272 1.14188V1.10416H270.998C269.007 1.03495 267.007 1.00003 265 1.00003V1.10416H194C193.792 1.10416 193.592 1.13639 193.403 1.19535C186.898 -0.14413 179.88 1.97074 175.213 7.33951L68 130.674V1.10416H0V340.104H68ZM192 79.4842L115.528 167.455L192 258.59V79.4842ZM289.507 73.06C288.427 73.0202 287.342 73 286.252 73V73.06H251C249.896 73.06 249 73.9554 249 75.06V268H289.823V267.868C336.077 265.995 373 227.905 373 181.192V159.749C373 113.035 336.077 74.9451 289.823 73.0722V73.06H289.507Z" fill="white"/>
</svg>
