<svg width="401" height="357" viewBox="0 0 401 357" fill="none" xmlns="http://www.w3.org/2000/svg">
<rect y="9" width="64" height="339" rx="5" fill="white"/>
<path d="M36 178.488L171.628 16.853C179.438 7.54539 193.315 6.33134 202.622 14.1414L234.796 41.1385L85.0268 219.627L36 178.488Z" fill="white"/>
<path d="M85.0269 137L234.796 315.488L201.856 343.128C192.972 350.583 179.726 349.424 172.271 340.54L36 178.138L85.0269 137Z" fill="white"/>
<rect x="189" y="9" width="55" height="339" fill="white"/>
<path d="M240 9V9C328.918 9 401 81.0822 401 170V187C401 275.918 328.918 348 240 348V348V9Z" fill="white"/>
</svg>
