<svg width="435" height="356" viewBox="0 0 435 356" fill="none" xmlns="http://www.w3.org/2000/svg">
<rect y="8.10413" width="72" height="339" fill="white"/>
<path d="M34.8169 175.847L175.214 14.3394C182.098 6.41997 194.099 5.58079 202.018 12.4651L235.98 41.9877L83.1183 217.835L34.8169 175.847Z" fill="white"/>
<path d="M85.0269 136.104L234.796 314.592L201.09 342.875C192.629 349.975 180.014 348.871 172.914 340.41L36 177.243L85.0269 136.104Z" fill="white"/>
<path d="M192 10.1041C192 8.99956 192.895 8.10413 194 8.10413H272V347.104H192V10.1041Z" fill="white"/>
<path d="M265 8V8C358.612 8 435 83.8877 435 177.5V177.5C435 271.112 358.612 347 265 347V347V8Z" fill="white"/>
</svg>
